<?xml version="1.0" encoding="UTF-8"?>
<svg version="1.1" xmlns="http://www.w3.org/2000/svg" width="32" height="32">
<path d="M0 0 C3.22568013 4.8385202 3.1898243 10.27714883 3 16 C1.76717654 19.426617 -0.44427774 21.44427774 -3 24 C-7.13997567 24.1971417 -10.07703567 24.30765478 -14 23 C-15.258125 23.061875 -16.51625 23.12375 -17.8125 23.1875 C-22.19713415 23.26030758 -24.60611741 21.81443922 -28 19 C-29.55024464 15.89951072 -29.28992015 13.42105782 -29 10 C-27.45706624 7.10699919 -26.24110174 5.50700326 -23.1640625 4.25 C-19.03913978 3.11209028 -15.2731788 3 -11 3 C-10.34 2.34 -9.68 1.68 -9 1 C-5.99134506 -0.03746722 -3.16568231 -0.33322972 0 0 Z " fill="#A7CA03" transform="translate(29,4)"/>
<path d="M0 0 C0.33 0.99 0.66 1.98 1 3 C-0.65 4.65 -2.3 6.3 -4 8 C-4.33 7.67 -4.66 7.34 -5 7 C-5.29562367 12.32170494 -5.29562367 12.32170494 -3 17 C-6.90341251 17.30615 -9.36721742 17.33014743 -12.875 15.5 C-15.36260385 12.57340724 -15.95615225 10.67966889 -16.1953125 6.90234375 C-16 5 -16 5 -14.4375 2.5625 C-9.92220668 -0.33191879 -5.22966181 -0.12451576 0 0 Z " fill="#FAF6D8" transform="translate(18,7)"/>
<path d="M0 0 C5.64577006 1.66806843 8.86230867 2.9277765 11.75 8.1875 C12.1625 9.115625 12.575 10.04375 13 11 C9.05859564 11.30912975 6.63830712 11.34690605 3.125 9.4375 C0.4228959 6.33802764 0.23316485 4.04152406 0 0 Z " fill="#F1ECC8" transform="translate(2,13)"/>
<path d="M0 0 C2.4294516 3.6441774 2.16179575 5.71241272 2 10 C1.67 9.34 1.34 8.68 1 8 C-1.34907875 7.31068656 -1.34907875 7.31068656 -4.0625 6.875 C-4.98160156 6.70742187 -5.90070312 6.53984375 -6.84765625 6.3671875 C-7.55792969 6.24601563 -8.26820312 6.12484375 -9 6 C-9.33 4.68 -9.66 3.36 -10 2 C-6.54207311 0.41923342 -3.8168932 -0.51579638 0 0 Z " fill="#6F6E1F" transform="translate(29,4)"/>
<path d="M0 0 C0.99 0.33 1.98 0.66 3 1 C3.45826062 6.7282577 2.55825861 9.4998494 -1 14 C-3 16 -3 16 -4.9453125 16.1953125 C-6.96354167 16.13020833 -8.98177083 16.06510417 -11 16 C-10.67 15.34 -10.34 14.68 -10 14 C-9.071875 13.690625 -8.14375 13.38125 -7.1875 13.0625 C-2.34596518 9.92974218 -1.54996661 5.37017845 0 0 Z " fill="#86BC13" transform="translate(29,12)"/>
<path d="M0 0 C0.33 0.99 0.66 1.98 1 3 C-0.65 4.65 -2.3 6.3 -4 8 C-6 7 -6 7 -7 4 C-8.49985609 2.33289654 -8.49985609 2.33289654 -10 1 C-6.61981469 -0.04005702 -3.5219721 -0.08004482 0 0 Z " fill="#BDD52B" transform="translate(18,7)"/>
<path d="M0 0 C0.66 0.33 1.32 0.66 2 1 C2.309375 2.11375 2.61875 3.2275 2.9375 4.375 C3.91204934 7.69993306 4.3498113 8.95212691 7 11 C4.125 11.1875 4.125 11.1875 1 11 C-1.43769218 7.34346173 -1.23944439 5.30999899 -1 1 C-0.67 0.67 -0.34 0.34 0 0 Z " fill="#C0D308" transform="translate(1,13)"/>
<path d="M0 0 C4.29 0 8.58 0 13 0 C12.67 0.99 12.34 1.98 12 3 C4.5 3.375 4.5 3.375 0 0 Z " fill="#B0CE07" transform="translate(3,24)"/>
<path d="M0 0 C2.375 -0.1875 2.375 -0.1875 5 0 C7.4294516 3.6441774 7.16179575 5.71241272 7 10 C5 6.25 5 6.25 5 4 C3.35 3.67 1.7 3.34 0 3 C0 2.01 0 1.02 0 0 Z " fill="#617B0A" transform="translate(24,4)"/>
<path d="M0 0 C1.98 0 3.96 0 6 0 C6.33 0.99 6.66 1.98 7 3 C5.02 3.66 3.04 4.32 1 5 C0.67 3.35 0.34 1.7 0 0 Z " fill="#F5F5CC" transform="translate(12,7)"/>
<path d="M0 0 C1.65 1.65 3.3 3.3 5 5 C3.02 5 1.04 5 -1 5 C-0.67 3.35 -0.34 1.7 0 0 Z " fill="#F9F4D1" transform="translate(10,19)"/>
</svg>
