<svg xmlns="http://www.w3.org/2000/svg" style="display: none;">

  <symbol id="instagram" viewBox="0 0 32 32">
    <path fill="currentColor" d="M16.002 0c-4.346 0-4.891.019-6.598.097C7.701.175 6.538.444 5.521.84a7.8 7.8 0 0 0-2.835 1.845A7.85 7.85 0 0 0 .84 5.519C.443 6.537.173 7.7.096 9.402.02 11.11 0 11.655 0 16c0 4.346.02 4.89.097 6.596.078 1.703.348 2.866.743 3.883a7.8 7.8 0 0 0 1.845 2.835A7.8 7.8 0 0 0 5.52 31.16c1.018.396 2.18.666 3.884.744 1.706.077 2.252.096 6.596.096 4.346 0 4.89-.019 6.597-.096 1.703-.078 2.867-.348 3.885-.744a7.8 7.8 0 0 0 2.832-1.846 7.85 7.85 0 0 0 1.847-2.834c.393-1.018.663-2.181.743-3.884C31.98 20.89 32 20.346 32 16c0-4.345-.02-4.89-.097-6.597-.08-1.704-.35-2.866-.743-3.884a7.85 7.85 0 0 0-1.847-2.834A7.8 7.8 0 0 0 26.48.84C25.46.444 24.297.175 22.593.097 20.887.019 20.343 0 15.996 0zm-1.436 2.883h1.435c4.272 0 4.779.016 6.466.092 1.56.072 2.407.332 2.97.551.747.29 1.28.637 1.84 1.197s.906 1.093 1.197 1.84c.219.563.48 1.41.55 2.97.077 1.687.094 2.194.094 6.464s-.017 4.776-.093 6.463c-.072 1.56-.332 2.407-.551 2.97a4.95 4.95 0 0 1-1.198 1.838c-.56.56-1.091.907-1.838 1.197-.564.22-1.411.48-2.971.551-1.687.077-2.193.093-6.465.093s-4.78-.016-6.466-.093c-1.56-.072-2.407-.333-2.97-.552a4.96 4.96 0 0 1-1.84-1.196 4.96 4.96 0 0 1-1.198-1.84c-.22-.563-.48-1.41-.551-2.97-.077-1.686-.092-2.193-.092-6.465s.015-4.777.092-6.464c.071-1.56.332-2.407.55-2.97.29-.747.638-1.28 1.198-1.84a5 5 0 0 1 1.84-1.198c.564-.22 1.411-.48 2.971-.552 1.476-.066 2.048-.086 5.03-.09zm9.976 2.657a1.92 1.92 0 1 0 0 3.84 1.92 1.92 0 0 0 0-3.84m-8.54 2.243a8.217 8.217 0 1 0 0 16.435 8.217 8.217 0 0 0 0-16.435m0 2.884a5.333 5.333 0 1 1 0 10.667 5.333 5.333 0 0 1 0-10.667"/>
  </symbol>

  <symbol id="facebook" viewBox="0 0 32 32">
    <path fill="currentColor" d="M32.002 16.098C32.002 7.208 24.838 0 16 0S0 7.208 0 16.098c0 8.036 5.851 14.696 13.5 15.903v-11.25H9.439v-4.653h4.063v-3.546c0-4.035 2.389-6.264 6.044-6.264 1.75 0 3.581.315 3.581.315v3.962H21.11c-1.988 0-2.608 1.24-2.608 2.514v3.02h4.438l-.71 4.653h-3.728v11.25c7.65-1.208 13.5-7.868 13.5-15.904"/>
  </symbol>

  <symbol id="youtube" viewBox="0 0 32 32">
    <path fill="currentColor" d="M16.104 3.997h.037l.142.001c1.643.006 9.973.066 12.22.67a4.01 4.01 0 0 1 2.828 2.84c.203.758.344 1.767.443 2.805l.019.207q.023.261.043.52l.015.208c.132 1.828.147 3.54.149 3.913v.151a63 63 0 0 1-.164 4.121l-.017.208-.017.209c-.1 1.145-.248 2.282-.47 3.117a4.01 4.01 0 0 1-2.83 2.839c-2.32.624-11.138.668-12.36.67h-.283c-.618 0-3.176-.013-5.854-.105l-.343-.012-.171-.006-.343-.014-.342-.014c-2.22-.098-4.335-.258-5.308-.52a4.01 4.01 0 0 1-2.83-2.838c-.222-.835-.37-1.972-.47-3.117l-.017-.209-.017-.208c-.14-1.835-.16-3.599-.164-4.072v-.248c.003-.428.02-1.916.128-3.556l.013-.206.008-.103.015-.207q.02-.26.043-.52l.02-.208c.098-1.038.239-2.047.442-2.806a4.01 4.01 0 0 1 2.829-2.839c.973-.261 3.089-.421 5.308-.518l.342-.015.343-.013.171-.007.342-.012c2.508-.086 4.91-.102 5.713-.105h.387M12.8 10.42v9.634l8.313-4.817z"/>
  </symbol>

  <symbol id="tiktok" viewBox="0 0 32 32">
    <path fill="currentColor" d="M18 0h3.961c.286 1.43 1.08 3.234 2.47 5.024C25.79 6.778 27.593 8 30 8v4c-3.507 0-6.142-1.627-8-3.657V22c0 5.523-4.477 10-10 10S2 27.523 2 22s4.477-10 10-10v4a6 6 0 1 0 6 6z"/>
  </symbol>
  
  <symbol id="arrow-right" viewBox="0 0 24 24">
    <path fill="currentColor" fill-rule="evenodd" d="M1.5 12a.75.75 0 0 1 .75-.75h17.69l-4.72-4.72a.75.75 0 0 1 1.06-1.06l6 6a.75.75 0 0 1 0 1.06l-6 6a.75.75 0 1 1-1.06-1.06l4.72-4.72H2.25A.75.75 0 0 1 1.5 12" clip-rule="evenodd"/>
  </symbol>

  <symbol id="search-icon" viewBox="0 0 16 16">
    <path fill="currentColor" fill-rule="evenodd" d="M6.5 12a5.5 5.5 0 1 0 0-11 5.5 5.5 0 0 0 0 11M13 6.5a6.5 6.5 0 1 1-13 0 6.5 6.5 0 0 1 13 0" clip-rule="evenodd"/><path fill="currentColor" d="M10.344 11.742q.044.06.098.115l3.85 3.85a1 1 0 0 0 1.415-1.414l-3.85-3.85a1 1 0 0 0-.115-.1 6.5 6.5 0 0 1-1.398 1.4"/>
  </symbol>

  <symbol id="cart-icon" viewBox="0 0 16 16">
    <path fill="currentColor" d="M0 1.5A.5.5 0 0 1 .5 1H2a.5.5 0 0 1 .485.379L2.89 3H14.5a.5.5 0 0 1 .49.598l-1 5a.5.5 0 0 1-.465.401l-9.397.472L4.415 11H13a.5.5 0 0 1 0 1H4a.5.5 0 0 1-.491-.408L2.01 3.607 1.61 2H.5a.5.5 0 0 1-.5-.5M3.102 4l.84 4.479 9.144-.459L13.89 4zM5 12a2 2 0 1 0 0 4 2 2 0 0 0 0-4m7 0a2 2 0 1 0 0 4 2 2 0 0 0 0-4m-7 1a1 1 0 1 1 0 2 1 1 0 0 1 0-2m7 0a1 1 0 1 1 0 2 1 1 0 0 1 0-2"/>
  </symbol>

  <symbol id="star-icon" viewBox="0 0 16 16">
    <path fill="currentColor" fill-rule="evenodd" d="m13.025 15.91-4.97-2.81L3.134 16l1.014-5.822-4.152-4.012 5.596-.789L7.95 0l2.444 5.335L16 6.022l-4.085 4.085z" clip-rule="evenodd"/>
  </symbol>

  <symbol id="close-icon" viewBox="0 0 32 32">
    <path fill="currentColor" d="M.781.781a2.667 2.667 0 0 1 3.771 0l14.115 14.114L32.78.781a2.667 2.667 0 1 1 3.771 3.771L22.438 18.667 36.552 32.78a2.667 2.667 0 0 1-3.77 3.771L18.666 22.438 4.552 36.552a2.667 2.667 0 1 1-3.77-3.771l14.113-14.114L.781 4.552a2.667 2.667 0 0 1 0-3.771"/>
  </symbol>

</svg>